<?xml version="1.0" encoding="UTF-8" standalone="no"?>
<!-- Created with Inkscape (http://www.inkscape.org/) -->

<svg
   xmlns:dc="http://purl.org/dc/elements/1.1/"
   xmlns:cc="http://creativecommons.org/ns#"
   xmlns:rdf="http://www.w3.org/1999/02/22-rdf-syntax-ns#"
   xmlns:svg="http://www.w3.org/2000/svg"
   xmlns="http://www.w3.org/2000/svg"
   xmlns:sodipodi="http://sodipodi.sourceforge.net/DTD/sodipodi-0.dtd"
   xmlns:inkscape="http://www.inkscape.org/namespaces/inkscape"
   id="svg4230"
   version="1.1"
   inkscape:version="0.91 r13725"
   width="19.991732"
   height="16.221403"
   viewBox="0 0 19.991731 16.221403"
   sodipodi:docname="rocher0_bis.svg"
   inkscape:export-filename="D:\workspace\geoxygene\geoxygene-appli\samples\cassini\images\rochers\rocher00_bis.png"
   inkscape:export-xdpi="272"
   inkscape:export-ydpi="272">
  <metadata
     id="metadata4236">
    <rdf:RDF>
      <cc:Work
         rdf:about="">
        <dc:format>image/svg+xml</dc:format>
        <dc:type
           rdf:resource="http://purl.org/dc/dcmitype/StillImage" />
        <dc:title />
      </cc:Work>
    </rdf:RDF>
  </metadata>
  <defs
     id="defs4234">
    <inkscape:path-effect
       effect="spiro"
       id="path-effect5802"
       is_visible="true" />
    <inkscape:path-effect
       effect="spiro"
       id="path-effect5798"
       is_visible="true" />
    <inkscape:path-effect
       effect="spiro"
       id="path-effect5794"
       is_visible="true" />
    <inkscape:path-effect
       effect="spiro"
       id="path-effect5404"
       is_visible="true" />
    <inkscape:path-effect
       effect="spiro"
       id="path-effect5400"
       is_visible="true" />
    <inkscape:path-effect
       effect="spiro"
       id="path-effect5396"
       is_visible="true" />
    <inkscape:path-effect
       effect="spiro"
       id="path-effect5392"
       is_visible="true" />
    <inkscape:path-effect
       effect="spiro"
       id="path-effect5794-9"
       is_visible="true" />
    <inkscape:path-effect
       effect="spiro"
       id="path-effect5794-7"
       is_visible="true" />
  </defs>
  <sodipodi:namedview
     pagecolor="#ffffff"
     bordercolor="#666666"
     borderopacity="1"
     objecttolerance="10"
     gridtolerance="10"
     guidetolerance="10"
     inkscape:pageopacity="0"
     inkscape:pageshadow="2"
     inkscape:window-width="1920"
     inkscape:window-height="1018"
     id="namedview4232"
     showgrid="false"
     fit-margin-top="0"
     fit-margin-left="0"
     fit-margin-right="0"
     fit-margin-bottom="0"
     inkscape:zoom="15.505315"
     inkscape:cx="-13.532072"
     inkscape:cy="5.6113181"
     inkscape:window-x="-8"
     inkscape:window-y="-8"
     inkscape:window-maximized="1"
     inkscape:current-layer="svg4230" />
  <path
     style="fill:none;fill-rule:evenodd;stroke:#000000;stroke-width:2;stroke-linecap:butt;stroke-linejoin:miter;stroke-miterlimit:4;stroke-dasharray:none;stroke-opacity:1"
     d="M 9.9297283,14.479726 C 9.2952355,14.780699 8.6211785,14.998137 7.9304139,15.124667 7.3777785,15.225896 6.8043078,15.268353 6.2568566,15.142059 5.983131,15.078911 5.7180353,14.973404 5.482989,14.819565 5.2479428,14.665725 5.0434332,14.462807 4.8991951,14.22175 4.7693463,14.004741 4.6899259,13.760472 4.641219,13.512316 c -0.041668,-0.212294 -0.061531,-0.428615 -0.064494,-0.64494 -0.00417,-0.30424 0.024959,-0.608103 0.024207,-0.91237 C 4.6001791,11.650738 4.5680592,11.341011 4.447737,11.061544 4.3454634,10.823998 4.1823682,10.616077 3.9939106,10.438956 3.8054529,10.261835 3.5915647,10.113974 3.3731048,9.9755425 2.9361849,9.6986785 2.4687261,9.449603 2.1259524,9.0622288 1.9077201,8.8156009 1.7491291,8.5222917 1.6100004,8.2238058 1.2264805,7.4010048 0.97474552,6.5019355 1.002064,5.5945532 1.0293826,4.6871708 1.3549398,3.770568 1.9969644,3.1287788 2.2457329,2.8801015 2.5440472,2.6668896 2.7063986,2.3548508 2.8133955,2.1492032 2.8535324,1.9135116 2.9643746,1.7099108 3.106793,1.4483093 3.3590251,1.2576922 3.6360079,1.1481529 3.9129907,1.0386136 4.2143991,1.0042788 4.512231,1.0004767 c 1.4142156,-0.0180538 2.778492,0.625313 4.192111,0.5804461 0.585562,-0.018585 1.1599227,-0.1551714 1.737879,-0.2510626 0.577956,-0.095891 1.176797,-0.1504502 1.744798,-0.00691 0.55138,0.1393363 1.045494,0.4609077 1.44884,0.8618391 0.403346,0.4009315 0.72144,0.8797164 1.000184,1.3754341 0.557487,0.9914353 0.979451,2.0792787 1.743087,2.9222479 0.578588,0.6386969 1.327935,1.1061526 1.895372,1.7547759 0.283719,0.3243116 0.521346,0.697053 0.638714,1.1116601 0.117369,0.4146071 0.106622,0.8744022 -0.08331,1.2611822 -0.117893,0.240074 -0.301098,0.445739 -0.517817,0.602477 -0.21672,0.156738 -0.466296,0.265437 -0.725412,0.33172 -0.518231,0.132565 -1.065291,0.09639 -1.593065,0.0093 -0.527774,-0.08713 -1.047037,-0.224116 -1.577591,-0.292306 -0.530553,-0.06819 -1.083017,-0.06456 -1.584058,0.122774 -0.252952,0.09458 -0.48701,0.233806 -0.709434,0.386964 -0.970081,0.667982 -1.741445,1.620842 -2.1927967,2.708748 z"
     id="path5402"
     inkscape:path-effect="#path-effect5404"
     inkscape:original-d="m 9.9297283,14.479726 c -0.4824758,0.627966 -1.1229975,0.644941 -1.9993144,0.644941 -1.6768404,0 -2.2521719,-0.12387 -3.0312188,-0.902917 C 4.7379601,14.060515 4.8024541,13.673551 4.641219,13.512316 4.4584425,13.32954 4.7533392,13.04399 4.576725,12.867376 4.254255,12.544906 4.7702071,11.384014 4.447737,11.061544 3.7923764,10.406183 2.6015353,10.013394 2.1259524,9.0622288 2.009339,8.8290018 1.7459972,8.3598028 1.6100004,8.2238058 1.2614098,7.8752158 1.7524805,3.6177468 1.9969644,3.1287788 2.1771293,2.7684488 2.522249,2.7231498 2.7063986,2.3548508 2.7683466,2.2309548 2.8772735,1.7970118 2.9643746,1.7099108 3.3666633,1.3076217 4.1175938,1.3951137 4.512231,1.0004767 4.7786014,0.73410575 7.9226014,1.5809228 8.704342,1.5809228 c 0.2085014,0 3.368499,-0.3721531 3.482677,-0.2579761 1.235819,1.2358191 3.482778,3.0315231 4.192111,5.1595211 0.27436,0.823079 3.823892,1.381378 2.450772,4.1276182 -1.022405,2.044811 -5.35131,0.127295 -5.997943,0.773928 -0.182733,0.182733 -0.526701,0.204231 -0.709434,0.386964 -0.865329,0.865329 -0.970747,2.097723 -2.1927967,2.708748 z"
     inkscape:connector-curvature="0"
     inkscape:export-xdpi="272"
     inkscape:export-ydpi="272" />
  <path
     style="fill:none;fill-rule:evenodd;stroke:#000000;stroke-width:1.5;stroke-linecap:butt;stroke-linejoin:miter;stroke-opacity:1;stroke-miterlimit:4;stroke-dasharray:none"
     d="M 6.5777038,7.9661693 10.834309,12.867714"
     id="path5792"
     inkscape:path-effect="#path-effect5794"
     inkscape:original-d="M 6.5777038,7.9661693 C 7.6452607,9.7500006 9.8923482,10.983794 10.834309,12.867714"
     inkscape:connector-curvature="0"
     inkscape:export-xdpi="272"
     inkscape:export-ydpi="272" />
  <path
     style="fill:none;fill-rule:evenodd;stroke:#000000;stroke-width:1.80000007;stroke-linecap:butt;stroke-linejoin:miter;stroke-miterlimit:4;stroke-dasharray:none;stroke-opacity:1"
     d="M 7.2050831,5.7107369 12.851184,11.898446"
     id="path5792-0"
     inkscape:path-effect="#path-effect5794-9"
     inkscape:original-d="M 7.2050831,5.7107369 C 8.5849356,7.9354382 11.653897,9.5593995 12.851184,11.898446"
     inkscape:connector-curvature="0"
     inkscape:export-xdpi="272"
     inkscape:export-ydpi="272" />
  <path
     style="fill:none;fill-rule:evenodd;stroke:#000000;stroke-width:1.5;stroke-linecap:butt;stroke-linejoin:miter;stroke-opacity:1;stroke-miterlimit:4;stroke-dasharray:none"
     d="M 10.38285,5.9668551 14.639456,10.8684"
     id="path5792-8"
     inkscape:path-effect="#path-effect5794-7"
     inkscape:original-d="m 10.38285,5.9668551 c 1.067557,1.7838313 3.314645,3.0176247 4.256606,4.9015449"
     inkscape:connector-curvature="0"
     inkscape:export-xdpi="272"
     inkscape:export-ydpi="272" />
</svg>
