<?xml version="1.0" encoding="UTF-8" standalone="no"?>
<!-- Created with Inkscape (http://www.inkscape.org/) -->

<svg
   xmlns:dc="http://purl.org/dc/elements/1.1/"
   xmlns:cc="http://creativecommons.org/ns#"
   xmlns:rdf="http://www.w3.org/1999/02/22-rdf-syntax-ns#"
   xmlns:svg="http://www.w3.org/2000/svg"
   xmlns="http://www.w3.org/2000/svg"
   xmlns:sodipodi="http://sodipodi.sourceforge.net/DTD/sodipodi-0.dtd"
   xmlns:inkscape="http://www.inkscape.org/namespaces/inkscape"
   id="svg5406"
   version="1.1"
   inkscape:version="0.91 r13725"
   width="31.863995"
   height="22.923347"
   viewBox="0 0 31.863995 22.923348"
   sodipodi:docname="rocher01.svg">
  <metadata
     id="metadata5412">
    <rdf:RDF>
      <cc:Work
         rdf:about="">
        <dc:format>image/svg+xml</dc:format>
        <dc:type
           rdf:resource="http://purl.org/dc/dcmitype/StillImage" />
        <dc:title />
      </cc:Work>
    </rdf:RDF>
  </metadata>
  <defs
     id="defs5410">
    <inkscape:path-effect
       effect="spiro"
       id="path-effect5958"
       is_visible="true" />
  </defs>
  <sodipodi:namedview
     pagecolor="#ffffff"
     bordercolor="#666666"
     borderopacity="1"
     objecttolerance="10"
     gridtolerance="10"
     guidetolerance="10"
     inkscape:pageopacity="0"
     inkscape:pageshadow="2"
     inkscape:window-width="1920"
     inkscape:window-height="1018"
     id="namedview5408"
     showgrid="false"
     fit-margin-top="0"
     fit-margin-left="0"
     fit-margin-right="0"
     fit-margin-bottom="0"
     inkscape:zoom="11.144444"
     inkscape:cx="-2.648069"
     inkscape:cy="11.247588"
     inkscape:window-x="-8"
     inkscape:window-y="-8"
     inkscape:window-maximized="1"
     inkscape:current-layer="svg5406" />
  <path
     style="fill:none;fill-rule:evenodd;stroke:#404040;stroke-width:2.5;stroke-linecap:butt;stroke-linejoin:miter;stroke-miterlimit:4;stroke-dasharray:none;stroke-opacity:1"
     d="m 21.440209,18.852399 c -0.914655,0.989554 -2.060673,1.76389 -3.32004,2.24327 -2.545968,0.969126 -5.504509,0.675895 -7.896311,-0.628115 C 9.392503,20.0143 8.6155473,19.437304 8.03292,18.690889 7.4502926,17.944473 7.0719024,17.01756 7.0832794,16.070744 c 0.00288,-0.239534 0.030167,-0.480203 0,-0.717847 C 7.0373453,14.991049 6.8579461,14.653993 6.6134316,14.383334 6.3689171,14.112675 6.0616263,13.904678 5.7373172,13.737743 5.3529681,13.539903 4.9429478,13.397028 4.5503552,13.216097 4.1577626,13.035167 3.775172,12.809891 3.4940469,12.481511 3.2056535,12.144641 3.0422026,11.721927 2.8659312,11.315011 2.5362647,10.553988 2.1450193,9.8204299 1.8277575,9.0541528 1.5104958,8.2878758 1.2661932,7.4782226 1.2507766,6.6490074 1.2363301,5.8719718 1.4269947,5.0933624 1.7891615,4.4057374 2.1456139,3.728962 2.6753458,3.134021 3.3422817,2.7594814 4.0092176,2.3849419 4.8165981,2.2429252 5.5578556,2.4316594 6.0285547,2.5515058 6.4562076,2.7956511 6.8863123,3.0213297 7.3164169,3.2470083 7.7664847,3.4599885 8.24978,3.5084294 8.6430527,3.5478473 9.0421417,3.475244 9.4130741,3.3387656 9.7840065,3.2022873 10.129005,3.0033646 10.458776,2.7854932 11.118319,2.3497506 11.733878,1.829669 12.467128,1.5343514 c 1.015929,-0.4091668 2.180527,-0.3433717 3.215772,0.014117 1.035244,0.3574886 1.955817,0.9878227 2.796335,1.6900037 0.840519,0.7021809 1.613496,1.4816973 2.44584,2.1935481 0.832345,0.7118509 1.736178,1.362201 2.758404,1.7553722 1.109823,0.426863 2.313083,0.5342843 3.467975,0.8173771 0.577447,0.1415464 1.147557,0.3290205 1.66866,0.6152568 0.521103,0.2862362 0.993346,0.6754366 1.323984,1.1695601 0.350517,0.5238306 0.532656,1.1699526 0.448654,1.7946166 -0.08604,0.639785 -0.444395,1.223404 -0.919927,1.659978 -0.475531,0.436574 -1.062518,0.736352 -1.669391,0.956424 -1.213747,0.440144 -2.533225,0.582623 -3.691839,1.152292 -1.396069,0.686421 -2.470812,1.996264 -2.871386,3.499502 z"
     id="path5956"
     inkscape:path-effect="#path-effect5958"
     inkscape:original-d="m 21.440209,18.852399 c -1.377333,0.592706 -2.308604,1.231835 -3.32004,2.24327 -1.353234,1.353235 -6.723708,-0.04181 -7.896311,-0.628115 -2.4888373,-1.244419 -1.9007449,-1.917143 -3.1405786,-4.39681 -0.075659,-0.151319 0.1150206,-0.602826 0,-0.717847 C 6.6132993,14.882917 6.3250183,14.325444 5.7373172,13.737743 5.1173658,13.117791 4.0203115,13.007776 3.4940469,12.481511 3.1822488,12.169713 3.2357072,11.592343 2.8659312,11.315011 1.4974946,10.288682 1.2507766,8.7461424 1.2507766,6.6490074 c 0,-0.962713 0.061465,-1.76635 0.5383849,-2.24327 1.0135526,-1.013553 2.4158509,-1.297656 3.7686941,-1.974078 1.2074781,-0.603739 2.0565598,1.07677 2.6919244,1.07677 0.9310959,0 1.889269,-3.138118 4.217348,-1.974078 2.509726,1.254863 8.833305,5.653041 11.216351,5.653041 0.770473,0 6.282845,2.246646 6.460619,2.602194 0.09848,0.196963 0.890517,1.3527536 0.448654,1.7946166 -1.707073,1.707073 -3.886344,2.571288 -6.281157,3.768694 -1.31622,0.658111 -1.649308,2.684783 -2.871386,3.499502 z"
     inkscape:connector-curvature="0"
     inkscape:export-xdpi="272"
     inkscape:export-ydpi="272" />
</svg>
